HIERARCHY
ROOT Hips
{
  OFFSET 5.80788e-005 67.184 3.4734
  CHANNELS 6 Xposition Yposition Zposition Zrotation Xrotation Yrotation
  JOINT Chest
  {
    OFFSET 0 8.7983 -4.7612
    CHANNELS 6 Xposition Yposition Zposition Zrotation Xrotation Yrotation
    JOINT Chest2
    {
      OFFSET 0 8.0291 0.4195
      CHANNELS 6 Xposition Yposition Zposition Zrotation Xrotation Yrotation
      JOINT Chest3
      {
        OFFSET 0 9.9351 -2.2114
        CHANNELS 6 Xposition Yposition Zposition Zrotation Xrotation Yrotation
        JOINT Neck
        {
          OFFSET 0 22.3885 -0.4656
          CHANNELS 6 Xposition Yposition Zposition Zrotation Xrotation Yrotation
          JOINT Head
          {
            OFFSET -0.0001 12.643 3.4389
            CHANNELS 6 Xposition Yposition Zposition Zrotation Xrotation Yrotation
            End Site
            {
              OFFSET 0.0001 17.6655 0.5274
            }
          }
        }
        JOINT LeftCollar
        {
          OFFSET 2.2603 21.606 7.4023
          CHANNELS 6 Xposition Yposition Zposition Zrotation Xrotation Yrotation
          JOINT LeftShoulder
          {
            OFFSET 13.5163 -1.1332 -5.0146
            CHANNELS 6 Xposition Yposition Zposition Zrotation Xrotation Yrotation
            JOINT LeftElbow
            {
              OFFSET -0.0995 -28.05 -0.2431
              CHANNELS 6 Xposition Yposition Zposition Zrotation Xrotation Yrotation
              JOINT LeftWrist
              {
                OFFSET 0.0679 -23.3996 -0.1402
                CHANNELS 6 Xposition Yposition Zposition Zrotation Xrotation Yrotation
                JOINT LeftFinger1
                {
                  OFFSET 0.7932 -9.069 2.5189
                  CHANNELS 6 Xposition Yposition Zposition Zrotation Xrotation Yrotation
                  JOINT LeftFinger11
                  {
                    OFFSET -0.8272 -3.3923 0.5977
                    CHANNELS 6 Xposition Yposition Zposition Zrotation Xrotation Yrotation
                    JOINT LeftFinger12
                    {
                      OFFSET -0.5649 -2.3158 0.4082
                      CHANNELS 6 Xposition Yposition Zposition Zrotation Xrotation Yrotation
                      End Site
                      {
                        OFFSET -0.4919 -1.6479 0.2673
                      }
                    }
                  }
                }
                JOINT LeftFinger2
                {
                  OFFSET 0.9159 -9.2044 0.2193
                  CHANNELS 6 Xposition Yposition Zposition Zrotation Xrotation Yrotation
                  JOINT LeftFinger21
                  {
                    OFFSET 0.0117 -4.1944 -0.0248
                    CHANNELS 6 Xposition Yposition Zposition Zrotation Xrotation Yrotation
                    JOINT LeftFinger22
                    {
                      OFFSET 0.0071 -2.3249 -0.0142
                      CHANNELS 6 Xposition Yposition Zposition Zrotation Xrotation Yrotation
                      End Site
                      {
                        OFFSET -0.1475 -2.0882 0.0028
                      }
                    }
                  }
                }
                JOINT LeftFinger3
                {
                  OFFSET 0.6113 -8.7231 -2.0637
                  CHANNELS 6 Xposition Yposition Zposition Zrotation Xrotation Yrotation
                  JOINT LeftFinger31
                  {
                    OFFSET -0.1927 -3.8059 -0.2383
                    CHANNELS 6 Xposition Yposition Zposition Zrotation Xrotation Yrotation
                    JOINT LeftFinger32
                    {
                      OFFSET -0.1091 -2.1688 -0.1362
                      CHANNELS 6 Xposition Yposition Zposition Zrotation Xrotation Yrotation
                      End Site
                      {
                        OFFSET -0.2358 -1.9176 -0.0906
                      }
                    }
                  }
                }
                JOINT LeftFinger4
                {
                  OFFSET -0.6151 -8.0947 -3.5641
                  CHANNELS 6 Xposition Yposition Zposition Zrotation Xrotation Yrotation
                  JOINT LeftFinger41
                  {
                    OFFSET -0.4882 -2.341 -0.6462
                    CHANNELS 6 Xposition Yposition Zposition Zrotation Xrotation Yrotation
                    JOINT LeftFinger42
                    {
                      OFFSET -0.3575 -1.7167 -0.4742
                      CHANNELS 6 Xposition Yposition Zposition Zrotation Xrotation Yrotation
                      End Site
                      {
                        OFFSET -0.4187 -1.5237 -0.3496
                      }
                    }
                  }
                }
                JOINT LeftFinger0
                {
                  OFFSET -1.42 -1.8761 1.4223
                  CHANNELS 6 Xposition Yposition Zposition Zrotation Xrotation Yrotation
                  JOINT LeftFinger01
                  {
                    OFFSET -1.1471 -3.4929 2.6334
                    CHANNELS 6 Xposition Yposition Zposition Zrotation Xrotation Yrotation
                    JOINT LeftFinger02
                    {
                      OFFSET -0.823 -2.3 1.6571
                      CHANNELS 6 Xposition Yposition Zposition Zrotation Xrotation Yrotation
                      End Site
                      {
                        OFFSET -0.5822 -1.6914 1.1582
                      }
                    }
                  }
                }
              }
            }
          }
        }
        JOINT RightCollar
        {
          OFFSET -2.2603 21.606 7.4023
          CHANNELS 6 Xposition Yposition Zposition Zrotation Xrotation Yrotation
          JOINT RightShoulder
          {
            OFFSET -13.5187 -1.1334 -5.0155
            CHANNELS 6 Xposition Yposition Zposition Zrotation Xrotation Yrotation
            JOINT RightElbow
            {
              OFFSET 0.0994 -28.0499 -0.2431
              CHANNELS 6 Xposition Yposition Zposition Zrotation Xrotation Yrotation
              JOINT RightWrist
              {
                OFFSET -0.0679 -23.3996 -0.1402
                CHANNELS 6 Xposition Yposition Zposition Zrotation Xrotation Yrotation
                JOINT RightFinger1
                {
                  OFFSET -0.7932 -9.0691 2.5189
                  CHANNELS 6 Xposition Yposition Zposition Zrotation Xrotation Yrotation
                  JOINT RightFinger11
                  {
                    OFFSET 0.8272 -3.3923 0.5977
                    CHANNELS 6 Xposition Yposition Zposition Zrotation Xrotation Yrotation
                    JOINT RightFinger12
                    {
                      OFFSET 0.565 -2.3158 0.4082
                      CHANNELS 6 Xposition Yposition Zposition Zrotation Xrotation Yrotation
                      End Site
                      {
                        OFFSET 0.4919 -1.6479 0.2673
                      }
                    }
                  }
                }
                JOINT RightFinger2
                {
                  OFFSET -0.916 -9.2044 0.2193
                  CHANNELS 6 Xposition Yposition Zposition Zrotation Xrotation Yrotation
                  JOINT RightFinger21
                  {
                    OFFSET -0.0117 -4.1944 -0.0248
                    CHANNELS 6 Xposition Yposition Zposition Zrotation Xrotation Yrotation
                    JOINT RightFinger22
                    {
                      OFFSET -0.0071 -2.3249 -0.0142
                      CHANNELS 6 Xposition Yposition Zposition Zrotation Xrotation Yrotation
                      End Site
                      {
                        OFFSET 0.1475 -2.0882 0.0028
                      }
                    }
                  }
                }
                JOINT RightFinger3
                {
                  OFFSET -0.6113 -8.7231 -2.0637
                  CHANNELS 6 Xposition Yposition Zposition Zrotation Xrotation Yrotation
                  JOINT RightFinger31
                  {
                    OFFSET 0.1927 -3.8059 -0.2383
                    CHANNELS 6 Xposition Yposition Zposition Zrotation Xrotation Yrotation
                    JOINT RightFinger32
                    {
                      OFFSET 0.1091 -2.1688 -0.1362
                      CHANNELS 6 Xposition Yposition Zposition Zrotation Xrotation Yrotation
                      End Site
                      {
                        OFFSET 0.2358 -1.9176 -0.0906
                      }
                    }
                  }
                }
                JOINT RightFinger4
                {
                  OFFSET 0.6151 -8.0947 -3.564
                  CHANNELS 6 Xposition Yposition Zposition Zrotation Xrotation Yrotation
                  JOINT RightFinger41
                  {
                    OFFSET 0.4882 -2.341 -0.6462
                    CHANNELS 6 Xposition Yposition Zposition Zrotation Xrotation Yrotation
                    JOINT RightFinger42
                    {
                      OFFSET 0.3574 -1.7166 -0.4742
                      CHANNELS 6 Xposition Yposition Zposition Zrotation Xrotation Yrotation
                      End Site
                      {
                        OFFSET 0.4187 -1.5237 -0.3496
                      }
                    }
                  }
                }
                JOINT RightFinger0
                {
                  OFFSET 1.4199 -1.8761 1.4221
                  CHANNELS 6 Xposition Yposition Zposition Zrotation Xrotation Yrotation
                  JOINT RightFinger01
                  {
                    OFFSET 1.1472 -3.4929 2.6336
                    CHANNELS 6 Xposition Yposition Zposition Zrotation Xrotation Yrotation
                    JOINT RightFinger02
                    {
                      OFFSET 0.8229 -2.3 1.6571
                      CHANNELS 6 Xposition Yposition Zposition Zrotation Xrotation Yrotation
                      End Site
                      {
                        OFFSET 0.5822 -1.6914 1.1582
                      }
                    }
                  }
                }
              }
            }
          }
        }
      }
    }
  }
  JOINT RightHip
  {
    OFFSET -9.412 3.9771 -0.7758
    CHANNELS 6 Xposition Yposition Zposition Zrotation Xrotation Yrotation
    JOINT RightKnee
    {
      OFFSET -0.7531 -40.938 0
      CHANNELS 6 Xposition Yposition Zposition Zrotation Xrotation Yrotation
      JOINT RightAnkle
      {
        OFFSET 0 -40.1986 0
        CHANNELS 6 Xposition Yposition Zposition Zrotation Xrotation Yrotation
        JOINT RightToe
        {
          OFFSET 0 -4.4182 9.239
          CHANNELS 6 Xposition Yposition Zposition Zrotation Xrotation Yrotation
          End Site
          {
            OFFSET 0 0 6.1981
          }
        }
      }
    }
  }
  JOINT LeftHip
  {
    OFFSET 9.4119 3.9773 -0.7758
    CHANNELS 6 Xposition Yposition Zposition Zrotation Xrotation Yrotation
    JOINT LeftKnee
    {
      OFFSET 0.7532 -40.9383 0
      CHANNELS 6 Xposition Yposition Zposition Zrotation Xrotation Yrotation
      JOINT LeftAnkle
      {
        OFFSET 0 -40.1986 0
        CHANNELS 6 Xposition Yposition Zposition Zrotation Xrotation Yrotation
        JOINT LeftToe
        {
          OFFSET 0 -4.4182 9.239
          CHANNELS 6 Xposition Yposition Zposition Zrotation Xrotation Yrotation
          End Site
          {
            OFFSET 0 0 6.1981
          }
        }
      }
    }
  }
}
MOTION
Frames:	4
Frame Time:	0.0333333
5.80788e-005 67.184 3.4734 0 0 -0 0 8.7983 -4.7612 0 0 -0 0 8.0291 0.4195 0 0 -0 0 9.9351 -2.2114 0 0 -0 0 22.3885 -0.4656 0 0 -0 -0.0001 12.643 3.4389 0 0 -0 2.2603 21.606 7.4023 0 0 -12.5014 13.5163 -1.1332 -5.0146 88.1196 14.2451 10.6914 -0.0995 -28.05 -0.2431 -0.00160068 -0.00239207 0.000740045 0.0679 -23.3996 -0.1402 -8.4365e-005 7.00714e-005 -9.52055e-007 0.7932 -9.069 2.5189 9.93923e-017 -1.98785e-016 -1.59028e-015 -0.8272 -3.3923 0.5977 9.93923e-017 -5.96354e-016 -1.59028e-015 -0.5649 -2.3158 0.4082 -9.93923e-017 -5.96354e-016 -1.59028e-015 0.9159 -9.2044 0.2193 9.93923e-017 -1.98785e-016 -1.59028e-015 0.0117 -4.1944 -0.0248 -0.0128176 0.00232552 8.52707e-005 0.0071 -2.3249 -0.0142 9.93923e-017 5.96354e-016 -0 0.6113 -8.7231 -2.0637 9.93923e-017 -1.98785e-016 -1.59028e-015 -0.1927 -3.8059 -0.2383 -0.0160551 0.00299681 0.000857156 -0.1091 -2.1688 -0.1362 -2.48481e-016 0 3.18055e-015 -0.6151 -8.0947 -3.5641 9.93923e-017 -1.98785e-016 -1.59028e-015 -0.4882 -2.341 -0.6462 -0.0125865 0.0031206 0.00282719 -0.3575 -1.7167 -0.4742 0 1.98785e-016 -0 -1.42 -1.8761 1.4223 9.93923e-017 -1.98785e-016 -1.59028e-015 -1.1471 -3.4929 2.6334 9.93923e-017 -5.96354e-016 -1.59028e-015 -0.823 -2.3 1.6571 -9.93923e-017 -5.96354e-016 -1.59028e-015 -2.2603 21.606 7.4023 -0.865644 0.16582 7.03859 -13.5187 -1.1334 -5.0155 -88.0329 10.2057 -10.5567 0.0994 -28.0499 -0.2431 0.0015593 -0.00248883 -0.000788628 -0.0679 -23.3996 -0.1402 7.87605e-005 4.10553e-005 1.24965e-005 -0.7932 -9.0691 2.5189 -3.97569e-016 -7.95139e-016 3.18055e-015 0.8272 -3.3923 0.5977 -1.98785e-016 -3.97569e-016 3.18055e-015 0.565 -2.3158 0.4082 -1.98785e-016 0 3.18055e-015 -0.916 -9.2044 0.2193 -3.97569e-016 -7.95139e-016 3.18055e-015 -0.0117 -4.1944 -0.0248 0.0129473 0.00231697 -8.70038e-005 -0.0071 -2.3249 -0.0142 9.93923e-017 -7.95139e-016 1.59028e-015 -0.6113 -8.7231 -2.0637 -3.97569e-016 -7.95139e-016 3.18055e-015 0.1927 -3.8059 -0.2383 0.0163314 0.00303369 -0.000872333 0.1091 -2.1688 -0.1362 3.97569e-016 7.95139e-016 -3.18055e-015 0.6151 -8.0947 -3.564 -3.97569e-016 -7.95139e-016 3.18055e-015 0.4882 -2.341 -0.6462 0.0145763 0.00367772 -0.00326275 0.3574 -1.7166 -0.4742 9.93923e-017 -3.97569e-016 -0 1.4199 -1.8761 1.4221 -3.97569e-016 -7.95139e-016 3.18055e-015 1.1472 -3.4929 2.6336 -1.98785e-016 -3.97569e-016 3.18055e-015 0.8229 -2.3 1.6571 -1.98785e-016 0 3.18055e-015 -9.412 3.9771 -0.7758 3.42485 1.36937 -0.0640303 -0.7531 -40.938 0 0.000136572 0.69354 0.00145564 1.77636e-015 -40.1986 -1.11022e-016 -3.42573 -2.06297 -0.0607933 8.88178e-016 -4.4182 9.239 -3.19502e-024 0 -1.48106e-024 9.4119 3.9773 -0.7758 -3.42498 1.36123 0.0639712 0.7532 -40.9383 2.22045e-016 -6.769e-005 0.712612 -0.0012277 8.88179e-016 -40.1986 0 3.42582 -2.07388 0.0612819 -8.88178e-016 -4.4182 9.239 2.55305e-023 0 -2.31416e-026 
-1.97823 39.6269 -15.8425 3.96427e-008 -6.59993 -1.25945e-008 0 8.7983 -4.7612 0.0993419 10.5005 -0.0640577 0 8.0291 0.4195 0.216476 21.0009 -0.150917 -4.44089e-016 9.9351 -2.2114 0.216476 21.0009 -0.150917 4.44089e-016 22.3885 -0.4656 0.358157 21.5013 -0.177904 -0.0001 12.643 3.4389 3.37099 -4.86416 0.379336 2.2603 21.606 7.4023 9.16848 7.33944 -40.6858 13.5163 -1.1332 -5.0146 65.5993 2.91905 53.1791 -0.0995 -28.05 -0.2431 -99.9526 -79.206 -123.067 0.0679 -23.3996 -0.1402 -0.38723 -12.8878 20.8549 0.7932 -9.069 2.5189 3.18055e-015 3.18055e-015 4.77083e-015 -0.8272 -3.3923 0.5977 0 0 -7.95139e-015 -0.5649 -2.3158 0.4082 -3.18055e-015 6.36111e-015 -4.77083e-015 0.9159 -9.2044 0.2193 3.18055e-015 3.18055e-015 4.77083e-015 0.0117 -4.1944 -0.0248 -0.0128269 0.00232703 8.94296e-005 0.0071 -2.3249 -0.0142 1.05934e-030 6.36111e-015 -9.54166e-015 0.6113 -8.7231 -2.0637 3.18055e-015 3.18055e-015 4.77083e-015 -0.1927 -3.8059 -0.2383 -0.0160667 0.00300546 0.000863988 -0.1091 -2.1688 -0.1362 -1.11082e-006 5.50648e-006 4.87923e-006 -0.6151 -8.0947 -3.5641 3.18055e-015 3.18055e-015 4.77083e-015 -0.4882 -2.341 -0.6462 -0.0126017 0.00312814 0.00281514 -0.3575 -1.7167 -0.4742 -3.18055e-015 -6.36111e-015 6.36111e-015 -1.42 -1.8761 1.4223 3.18055e-015 3.18055e-015 4.77083e-015 -1.1471 -3.4929 2.6334 0 0 -7.95139e-015 -0.823 -2.3 1.6571 -3.18055e-015 6.36111e-015 -4.77083e-015 -2.2603 21.606 7.4023 -9.23839 7.67593 34.0726 -13.5187 -1.1334 -5.0155 -64.9617 -0.42558 -51.128 0.0994 -28.0499 -0.2431 100.896 -80.6951 123.189 -0.0679 -23.3996 -0.1402 -5.09641 18.2484 7.33461 -0.7932 -9.0691 2.5189 3.18055e-015 1.23246e-014 -9.93923e-017 0.8272 -3.3923 0.5977 6.41396e-032 1.23246e-014 -2.98177e-016 0.565 -2.3158 0.4082 1.59028e-015 1.27222e-014 -0 -0.916001 -9.2044 0.2193 3.18055e-015 1.23246e-014 -9.93923e-017 -0.0117 -4.1944 -0.0248 0.0129893 0.00232317 -9.3711e-005 -0.0071 -2.3249 -0.0142 -3.18055e-015 1.27222e-014 -9.93923e-017 -0.6113 -8.7231 -2.0637 3.18055e-015 1.23246e-014 -9.93923e-017 0.1927 -3.8059 -0.2383 0.0162751 0.0030167 -0.00086526 0.1091 -2.1688 -0.1362 1.59028e-015 -3.97569e-016 2.98177e-016 0.6151 -8.0947 -3.564 3.18055e-015 1.23246e-014 -9.93923e-017 0.4882 -2.341 -0.6462 0.0145807 0.00366453 -0.0032558 0.3574 -1.7166 -0.4742 3.18055e-015 0 -0 1.4199 -1.8761 1.4221 3.18055e-015 1.23246e-014 -9.93923e-017 1.1472 -3.4929 2.6336 6.41396e-032 1.23246e-014 -2.98177e-016 0.8229 -2.3 1.6571 1.59028e-015 1.27222e-014 -0 -9.412 3.9771 -0.7758 -8.92542 0.304743 -6.61304 -0.7531 -40.938 3.55271e-015 -6.34085 77.0181 9.8781 -7.10543e-015 -40.1986 -1.77636e-015 -15.5761 34.99 -1.15253 -1.77636e-015 -4.4182 9.239 -6.76352e-007 1.06762e-005 1.38597e-006 9.4119 3.9773 -0.7758 8.08188 0.829319 6.54213 0.7532 -40.9383 0 5.88781 76.9203 -9.39089 0 -40.1986 -8.88178e-016 15.032 35.4843 2.03053 1.77636e-015 -4.4182 9.239 -2.56878e-007 1.20289e-007 7.97558e-007 
-2.86753 27.3164 -24.5913 -3.64984e-009 -9.90781 -2.12122e-008 4.44089e-016 8.7983 -4.7612 0.158753 15.3721 -0.110025 0 8.0291 0.4195 0.370794 30.7439 -0.282427 0 9.9351 -2.2114 0.370792 30.7437 -0.282425 -4.44089e-016 22.3885 -0.4656 0.569623 31.1161 -0.279845 -0.0001 12.643 3.4389 4.91809 -7.94294 0.624033 2.2603 21.606 7.4023 15.699 8.58891 -53.2916 13.5163 -1.1332 -5.0146 56.3857 -2.78824 72.0267 -0.0995 -28.05 -0.2431 -176.783 -46.9405 149.975 0.0679 -23.3996 -0.1402 -0.448536 -18.4774 30.3281 0.7932 -9.069 2.5189 -9.78402e-007 -3.70777e-006 1.13832e-006 -0.8272 -3.3923 0.5977 3.18055e-015 0 -3.18055e-015 -0.5649 -2.3158 0.4082 6.36111e-015 -3.18055e-015 -9.54166e-015 0.9159 -9.2044 0.2193 -9.78402e-007 -3.70777e-006 1.13832e-006 0.0117 -4.1944 -0.0248 -0.0128389 0.00232694 8.79027e-005 0.0071 -2.3249 -0.0142 -6.36111e-015 -1.27222e-014 -3.18055e-015 0.6113 -8.7231 -2.0637 -9.78402e-007 -3.70777e-006 1.13832e-006 -0.1927 -3.8059 -0.2383 -0.0160861 0.00300651 0.000858396 -0.1091 -2.1688 -0.1362 9.54166e-015 3.18055e-015 3.18055e-015 -0.6151 -8.0947 -3.5641 -9.78402e-007 -3.70777e-006 1.13832e-006 -0.4882 -2.341 -0.6462 -0.012561 0.0031178 0.00282143 -0.3575 -1.7167 -0.4742 -6.36111e-015 -9.54166e-015 -3.18055e-015 -1.42 -1.8761 1.4223 -9.78402e-007 -3.70777e-006 1.13832e-006 -1.1471 -3.4929 2.6334 3.18055e-015 0 -3.18055e-015 -0.823 -2.3 1.6571 6.36111e-015 -3.18055e-015 -9.54166e-015 -2.2603 21.606 7.4023 -15.4964 9.02387 46.208 -13.5187 -1.1334 -5.0155 -55.238 -5.80558 -69.1169 0.0994 -28.0499 -0.2431 -179.057 -47.4644 -147.39 -0.0679 -23.3996 -0.1402 -7.46476 26.7744 10.8244 -0.7932 -9.0691 2.5189 4.0001e-032 7.95139e-016 -2.88238e-015 0.8272 -3.3923 0.5977 5.3761e-006 -9.22294e-007 6.08851e-006 0.565 -2.3158 0.4082 7.95139e-016 -7.95139e-016 8.10048e-015 -0.916 -9.2044 0.2193 4.0001e-032 7.95139e-016 -2.88238e-015 -0.0117 -4.1944 -0.0248 0.0129099 0.00231339 -8.63945e-005 -0.0071 -2.3249 -0.0142 7.95139e-016 7.95139e-016 1.98785e-016 -0.6113 -8.7231 -2.0637 4.0001e-032 7.95139e-016 -2.88238e-015 0.1927 -3.8059 -0.2383 0.0163599 0.00304416 -0.000877888 0.1091 -2.1688 -0.1362 -2.17247e-031 1.19271e-014 1.04362e-015 0.6151 -8.0947 -3.564 4.0001e-032 7.95139e-016 -2.88238e-015 0.4882 -2.341 -0.6462 0.014576 0.00368477 -0.00327072 0.3574 -1.7166 -0.4742 7.95139e-016 7.95139e-016 -4.32357e-015 1.4199 -1.8761 1.4221 4.0001e-032 7.95139e-016 -2.88238e-015 1.1472 -3.4929 2.6336 5.3761e-006 -9.22294e-007 6.08851e-006 0.8229 -2.3 1.6571 7.95139e-016 -7.95139e-016 8.10048e-015 -9.412 3.9771 -0.7758 -14.2858 0.0487875 -9.90288 -0.7531 -40.938 0 -162.492 69.4073 165.858 0 -40.1986 3.55271e-015 -19.3333 53.5163 -3.53346 -5.32907e-015 -4.4182 9.239 -1.48439e-008 -3.19037e-008 1.82288e-006 9.4119 3.9773 -0.7758 13.0313 0.817321 9.83934 0.7532 -40.9383 -3.55271e-015 162.738 69.6276 -166.098 0 -40.1986 1.77636e-015 17.8222 54.2713 5.35321 1.77636e-015 -4.4182 9.239 -1.10926e-006 -2.8446e-006 -1.30208e-006 
-2.66998 30.1057 -22.796 7.07218e-008 -9.9237 1.06382e-008 0 8.7983 -4.7612 0.144485 14.6148 -0.101226 4.44089e-016 8.0291 0.4195 0.333964 29.2294 -0.255246 -4.44089e-016 9.9351 -2.2114 0.333962 29.2293 -0.255244 0 22.3885 -0.4656 0.518564 28.8467 -0.25368 -0.0001 12.643 3.4389 4.59532 -9.2381 0.729659 2.2603 21.606 7.4023 14.6834 7.11619 -49.7445 13.5163 -1.1332 -5.0146 58.3787 -1.47802 67.8474 -0.0995 -28.05 -0.2431 -171.712 -55.649 157.204 0.0679 -23.3996 -0.1402 -0.169049 -16.6444 28.9573 0.7932 -9.069 2.5189 1.73575e-006 -1.28776e-006 1.4722e-006 -0.8272 -3.3923 0.5977 1.28025e-005 4.80968e-006 5.7205e-006 -0.5649 -2.3158 0.4082 -2.35602e-005 -1.04677e-005 -3.91045e-006 0.9159 -9.2044 0.2193 1.73575e-006 -1.28776e-006 1.4722e-006 0.0117 -4.1944 -0.0248 -0.0128685 0.00233869 8.71477e-005 0.0071 -2.3249 -0.0142 -6.36111e-015 1.27222e-014 6.36111e-015 0.6113 -8.7231 -2.0637 1.73575e-006 -1.28776e-006 1.4722e-006 -0.1927 -3.8059 -0.2383 -0.0160191 0.00298955 0.000866561 -0.1091 -2.1688 -0.1362 -1.34875e-005 3.84709e-006 -8.23118e-006 -0.6151 -8.0947 -3.5641 1.73575e-006 -1.28776e-006 1.4722e-006 -0.4882 -2.341 -0.6462 -0.0126249 0.00313434 0.00284359 -0.3575 -1.7167 -0.4742 3.18055e-015 3.18055e-015 -3.18055e-015 -1.42 -1.8761 1.4223 1.73575e-006 -1.28776e-006 1.4722e-006 -1.1471 -3.4929 2.6334 1.28025e-005 4.80968e-006 5.7205e-006 -0.823 -2.3 1.6571 -2.35602e-005 -1.04677e-005 -3.91045e-006 -2.2603 21.606 7.4023 -14.6686 7.49391 42.8517 -13.5187 -1.1334 -5.0155 -57.3756 -4.57659 -65.1379 0.0994 -28.0499 -0.2431 176.136 -56.289 -154.15 -0.0679 -23.3996 -0.1402 -6.69518 25.6438 9.36655 -0.7932 -9.0691 2.5189 -3.10601e-016 0 2.44132e-015 0.8272 -3.3923 0.5977 -1.2424e-016 -7.95139e-016 -7.05841e-016 0.565 -2.3158 0.4082 9.93923e-017 -7.95139e-016 5.68711e-015 -0.916 -9.2044 0.2193 -3.10601e-016 0 2.44132e-015 -0.0117 -4.1944 -0.0248 0.0129829 0.00233228 -9.09309e-005 -0.0071 -2.3249 -0.0142 -2.23633e-016 0 -5.48987e-016 -0.6113 -8.7231 -2.0637 -3.10601e-016 0 2.44132e-015 0.1927 -3.8059 -0.2383 0.0163746 0.00304195 -0.000880929 0.1091 -2.1688 -0.1362 -2.48481e-017 7.95139e-016 7.06617e-016 0.6151 -8.0947 -3.564 -3.10601e-016 0 2.44132e-015 0.4882 -2.341 -0.6462 0.0145628 0.00366717 -0.00325852 0.3574 -1.7166 -0.4742 -2.60905e-016 0 3.99821e-015 1.4199 -1.8761 1.4221 -3.10601e-016 0 2.44132e-015 1.1472 -3.4929 2.6336 -1.2424e-016 -7.95139e-016 -7.05841e-016 0.8229 -2.3 1.6571 9.93923e-017 -7.95139e-016 5.68711e-015 -9.412 3.9771 -0.7758 -13.1547 0.59258 -9.02529 -0.7531 -40.938 0 -157.934 76.5328 161.46 -3.55271e-015 -40.1986 0 -18.7163 49.2616 -2.78918 3.55271e-015 -4.4182 9.239 -7.86186e-007 4.92023e-006 -5.05038e-007 9.4119 3.9773 -0.7758 12.0166 1.29871 8.97871 0.7532 -40.9383 0 158.244 76.726 -161.748 0 -40.1986 1.77636e-015 17.6901 50.077 4.19492 -1.77636e-015 -4.4182 9.239 -1.95519e-007 5.12474e-006 -8.01532e-007 
